<svg width="608" height="608" viewBox="0 0 608 608" fill="none" xmlns="http://www.w3.org/2000/svg">
<g filter="url(#filter0_d_1_2)">
<rect width="600" height="600" transform="translate(4)" fill="white"/>
<rect x="19" y="35" width="568" height="539" rx="51" fill="#00345A"/>
<rect x="263.747" y="143.603" width="146.605" height="174.642" fill="#F8D374" stroke="black"/>
<path fill-rule="evenodd" clip-rule="evenodd" d="M264 103.833C255.911 103.833 248.153 106.88 242.433 112.303C236.713 117.726 233.5 125.081 233.5 132.75V306.25C233.5 313.919 236.713 321.274 242.433 326.697C248.153 332.12 255.911 335.167 264 335.167H508C516.089 335.167 523.847 332.12 529.567 326.697C535.287 321.274 538.5 313.919 538.5 306.25V132.75C538.5 125.081 535.287 117.726 529.567 112.303C523.847 106.88 516.089 103.833 508 103.833H264ZM416.5 176.125C416.5 172.29 418.107 168.613 420.967 165.901C423.827 163.19 427.705 161.667 431.75 161.667H477.5C481.545 161.667 485.423 163.19 488.283 165.901C491.143 168.613 492.75 172.29 492.75 176.125C492.75 179.96 491.143 183.637 488.283 186.349C485.423 189.06 481.545 190.583 477.5 190.583H431.75C427.705 190.583 423.827 189.06 420.967 186.349C418.107 183.637 416.5 179.96 416.5 176.125ZM416.5 219.5C416.5 215.665 418.107 211.988 420.967 209.276C423.827 206.565 427.705 205.042 431.75 205.042H477.5C481.545 205.042 485.423 206.565 488.283 209.276C491.143 211.988 492.75 215.665 492.75 219.5C492.75 223.335 491.143 227.012 488.283 229.724C485.423 232.435 481.545 233.958 477.5 233.958H431.75C427.705 233.958 423.827 232.435 420.967 229.724C418.107 227.012 416.5 223.335 416.5 219.5ZM416.5 262.875C416.5 259.04 418.107 255.363 420.967 252.651C423.827 249.94 427.705 248.417 431.75 248.417H477.5C481.545 248.417 485.423 249.94 488.283 252.651C491.143 255.363 492.75 259.04 492.75 262.875C492.75 266.71 491.143 270.387 488.283 273.099C485.423 275.81 481.545 277.333 477.5 277.333H431.75C427.705 277.333 423.827 275.81 420.967 273.099C418.107 270.387 416.5 266.71 416.5 262.875ZM294.5 190.583C294.5 179.08 299.32 168.047 307.9 159.913C316.48 151.778 328.116 147.208 340.25 147.208C352.384 147.208 364.02 151.778 372.6 159.913C381.18 168.047 386 179.08 386 190.583C386 202.087 381.18 213.12 372.6 221.254C364.02 229.388 352.384 233.958 340.25 233.958C328.116 233.958 316.48 229.388 307.9 221.254C299.32 213.12 294.5 202.087 294.5 190.583ZM324.115 248.417C314.511 248.413 305.15 251.276 297.357 256.598C289.565 261.92 283.737 269.433 280.699 278.071L280.028 279.994L279.967 280.167C279.326 281.989 279.128 282.582 279.326 282.987C279.418 283.175 279.631 283.319 279.906 283.55C280.394 283.912 281.126 284.476 282.132 285.791C283.545 287.649 285.403 289.161 287.554 290.204C289.704 291.248 292.085 291.792 294.5 291.792H386C388.415 291.792 390.796 291.248 392.946 290.204C395.097 289.161 396.955 287.649 398.368 285.791C398.985 284.941 399.736 284.185 400.594 283.55C400.884 283.319 401.067 283.174 401.174 282.972C401.387 282.582 401.174 281.989 400.533 280.167L400.472 279.994L399.801 278.071C396.764 269.435 390.938 261.924 383.149 256.602C375.359 251.28 366.001 248.416 356.4 248.417H324.115Z" fill="#91CAF2"/>
<g clip-path="url(#clip0_1_2)">
<path d="M59.3365 267.22C52.2401 260.115 52.2401 248.635 59.3365 241.53C66.4328 234.426 77.9573 234.426 85.0536 241.53L194.054 350.655C201.15 357.76 201.15 369.297 194.054 376.402L85.0536 485.527C77.9573 492.631 66.4328 492.631 59.3365 485.527C52.2401 478.422 52.2401 466.885 59.3365 459.78L155.449 363.5L59.3365 267.22ZM199.333 454.438H362.833C372.882 454.438 381 462.565 381 472.625C381 482.685 372.882 490.813 362.833 490.813H199.333C189.285 490.813 181.167 482.685 181.167 472.625C181.167 462.565 189.285 454.438 199.333 454.438Z" fill="white"/>
</g>
</g>
<defs>
<filter id="filter0_d_1_2" x="0" y="0" width="608" height="608" filterUnits="userSpaceOnUse" color-interpolation-filters="sRGB">
<feFlood flood-opacity="0" result="BackgroundImageFix"/>
<feColorMatrix in="SourceAlpha" type="matrix" values="0 0 0 0 0 0 0 0 0 0 0 0 0 0 0 0 0 0 127 0" result="hardAlpha"/>
<feOffset dy="4"/>
<feGaussianBlur stdDeviation="2"/>
<feComposite in2="hardAlpha" operator="out"/>
<feColorMatrix type="matrix" values="0 0 0 0 0 0 0 0 0 0 0 0 0 0 0 0 0 0 0.25 0"/>
<feBlend mode="normal" in2="BackgroundImageFix" result="effect1_dropShadow_1_2"/>
<feBlend mode="normal" in="SourceGraphic" in2="effect1_dropShadow_1_2" result="shape"/>
</filter>
<clipPath id="clip0_1_2">
<rect width="327" height="291" fill="white" transform="translate(54 218)"/>
</clipPath>
</defs>
</svg>
